HIERARCHY
ROOT Hips
{
	OFFSET -0.179506 -22.333345 2.821913
	CHANNELS 6 Xposition Yposition Zposition Zrotation Yrotation Xrotation 
	JOINT LeftUpLeg
	{
		OFFSET 6.951974 -9.140623 -0.681533
		CHANNELS 3 Zrotation Yrotation Xrotation
		JOINT LeftLeg
		{
			OFFSET 3.427654 -37.519855 -0.449580
			CHANNELS 3 Zrotation Yrotation Xrotation
			JOINT LeftFoot
			{
				OFFSET -1.359570 -39.796059 -4.369333
				CHANNELS 3 Zrotation Yrotation Xrotation
				JOINT LeftToe
				{
					OFFSET 2.635814 -5.579078 11.928840
					CHANNELS 3 Zrotation Yrotation Xrotation
					End Site
					{
						OFFSET 0.000000 0.000000 0.000000
					}
				}
			}
		}
	}
	JOINT RightUpLeg
	{
		OFFSET -6.767048 -9.052170 -0.431982
		CHANNELS 3 Zrotation Yrotation Xrotation
		JOINT RightLeg
		{
			OFFSET -3.829005 -38.256897 -0.885003
			CHANNELS 3 Zrotation Yrotation Xrotation
			JOINT RightFoot
			{
				OFFSET 1.577377 -39.841461 -4.231180
				CHANNELS 3 Zrotation Yrotation Xrotation
				JOINT RightToe
				{
					OFFSET -2.537174 -4.814398 12.334795
					CHANNELS 3 Zrotation Yrotation Xrotation
					End Site
					{
						OFFSET 0.000000 0.000000 0.000000
					}
				}
			}
		}
	}
	JOINT Spine
	{
		OFFSET -0.253288 10.896323 -2.669631
		CHANNELS 3 Zrotation Yrotation Xrotation
		JOINT Spine1
		{
			OFFSET 0.548704 13.518043 0.109247
			CHANNELS 3 Zrotation Yrotation Xrotation
			JOINT Spine2
			{
				OFFSET 0.145701 5.292222 2.542457
				CHANNELS 3 Zrotation Yrotation Xrotation
				JOINT Neck
				{
					OFFSET -0.277840 21.387037 -4.285703
					CHANNELS 3 Zrotation Yrotation Xrotation
					JOINT Head
					{
						OFFSET 0.515184 6.496960 5.134897
						CHANNELS 3 Zrotation Yrotation Xrotation
						End Site
						{
							OFFSET 0.000000 0.000000 0.000000
						}
					}
				}
				JOINT LeftShoulder
				{
					OFFSET 7.884473 12.174932 -3.408961
					CHANNELS 3 Zrotation Yrotation Xrotation
					JOINT LeftArm
					{
						OFFSET 9.097692 3.046888 -0.886815
						CHANNELS 3 Zrotation Yrotation Xrotation
						JOINT LeftForeArm
						{
							OFFSET 25.961220 -1.277207 -2.745643
							CHANNELS 3 Zrotation Yrotation Xrotation
							JOINT LeftHand
							{
								OFFSET 24.923361 0.898606 -0.117091
								CHANNELS 3 Zrotation Yrotation Xrotation
								End Site
								{
									OFFSET 0.000000 0.000000 0.000000
								}
							}
						}
					}
				}
				JOINT RightShoulder
				{
					OFFSET -8.175920 11.883285 -3.861528
					CHANNELS 3 Zrotation Yrotation Xrotation
					JOINT RightArm
					{
						OFFSET -9.601238 3.255117 -0.914307
						CHANNELS 3 Zrotation Yrotation Xrotation
						JOINT RightForeArm
						{
							OFFSET -25.374195 -1.332924 -2.140099
							CHANNELS 3 Zrotation Yrotation Xrotation
							JOINT RightHand
							{
								OFFSET -25.529810 0.777228 -0.555919
								CHANNELS 3 Zrotation Yrotation Xrotation
								End Site
								{
									OFFSET 0.000000 0.000000 0.000000
								}
							}
						}
					}
				}
			}
		}
	}
}
MOTION
Frames: 15
Frame Time: 0.033333
24.400023 43.210194 98.255669 -66.208804 2.684000 83.896754 -0.922160 -3.243538 15.484598 -2.649738 -15.926081 2.005725 5.190523 6.801395 -11.819920 nan nan nan -5.628764 0.674047 -15.797499 2.263077 0.781636 6.776717 9.972511 -0.611042 8.345804 nan nan nan -5.537229 -1.615834 2.673186 5.185796 -3.101642 11.636262 -0.745919 -0.317921 -0.582551 -0.271352 9.334669 13.096598 -1.863758 1.369451 7.709468 -20.909684 5.147179 -2.953902 -64.694007 -16.865971 22.623799 17.847904 -45.145649 -18.044761 -9.801721 -20.871667 4.151205 25.213069 -5.139201 2.233461 66.795104 -0.094721 12.640256 -16.982283 19.309890 -16.368757 9.620671 8.276318 -1.718980 
23.597515 42.945244 98.134735 -65.676304 2.585618 84.076393 -0.756315 -3.035345 15.839395 -2.686619 -16.263151 1.952440 4.896063 6.381275 -12.042337 nan nan nan -5.822731 0.194585 -15.737179 2.199481 0.704427 4.580663 10.334819 -0.130325 9.007031 nan nan nan -5.582495 -1.654525 2.312214 5.241367 -3.126681 11.794236 -0.804400 -0.293181 -0.506276 -0.318915 9.220985 13.322687 -1.788125 1.195539 7.500404 -20.957041 5.106716 -2.824927 -64.659256 -17.115181 22.741121 18.016550 -45.414611 -18.118411 -9.977139 -20.966717 4.130954 25.123787 -5.256367 2.334979 66.894791 0.033302 12.339146 -16.860722 19.150984 -16.158181 9.839763 8.202876 -1.416094 
22.775816 42.678352 98.024925 -65.143504 2.616510 84.238227 -0.464309 -2.845351 16.172813 -2.725264 -16.769093 2.031942 4.545989 6.060489 -12.287481 nan nan nan -5.980711 0.030356 -15.592234 2.331557 0.523015 2.424741 10.560488 0.001271 9.405091 nan nan nan -5.509551 -1.750589 2.012870 5.324004 -3.120891 11.860832 -0.858245 -0.266615 -0.423238 -0.427039 9.113991 13.557280 -1.696571 1.080682 7.347542 -21.080803 5.174019 -2.680882 -64.618254 -17.389478 22.779707 18.027360 -45.713880 -18.152455 -10.160739 -21.081889 4.103222 25.040488 -5.398716 2.400126 66.909878 0.120503 11.989065 -16.670029 19.059183 -16.005633 10.189548 8.309937 -1.357370 
21.967686 42.405071 97.914467 -64.670717 2.622975 84.424773 -0.240637 -2.688308 16.421952 -2.755985 -17.186289 2.228832 4.288998 5.802235 -12.648943 nan nan nan -6.190886 -0.216889 -15.454725 2.583873 0.312396 0.408345 11.058349 0.165847 9.578378 nan nan nan -5.441235 -1.791658 1.725335 5.387450 -3.086678 11.910648 -0.865611 -0.294152 -0.392721 -0.463874 8.915241 13.683126 -1.663582 0.912983 7.431829 -21.248500 5.300788 -2.570020 -64.630400 -17.576042 22.774779 17.991982 -46.031069 -18.327089 -10.150902 -21.126105 4.229135 24.954421 -5.427745 2.535403 66.864240 0.152563 11.639594 -16.474657 19.047612 -16.223907 10.362923 8.442075 -1.358035 
21.152538 42.136539 97.793968 -64.223635 2.566492 84.586945 -0.086164 -2.519488 16.710567 -2.766099 -17.562916 2.395536 4.060095 5.546603 -13.004239 nan nan nan -6.446870 -0.602645 -15.339055 2.925803 -0.026112 -1.262512 11.703407 0.508328 9.389474 nan nan nan -5.415431 -1.868254 1.491257 5.370935 -3.058956 11.938202 -0.838916 -0.307420 -0.410104 -0.574660 8.910394 13.845870 -1.597480 0.743564 7.399917 -21.393926 5.481705 -2.591118 -64.576735 -17.608213 22.832956 17.822956 -46.235568 -18.083790 -9.894303 -21.396611 4.312388 24.885610 -5.307933 2.886559 66.856317 0.246840 11.391743 -16.319118 18.950742 -16.384345 10.095467 8.575218 -1.268650 
20.328766 41.863087 97.664932 -63.679820 2.542675 84.731261 0.117832 -2.389890 17.008739 -2.762267 -17.934453 2.589245 3.731586 5.213183 -13.397567 nan nan nan -6.685827 -0.970374 -15.252871 3.295766 -0.504884 -2.517531 12.213312 0.781704 8.688679 nan nan nan -5.318367 -1.988946 1.316662 5.364019 -3.059496 11.940740 -0.833548 -0.308962 -0.380153 -0.658171 8.814920 13.932679 -1.589520 0.649993 7.346416 -21.538203 5.657617 -2.587757 -64.553549 -17.703257 22.782208 17.666485 -46.362545 -17.971888 -10.138825 -21.495892 4.810679 24.876005 -5.263361 3.073687 66.796847 0.278477 11.139830 -16.237199 18.951965 -16.407220 10.273155 8.642699 -0.792915 
19.507479 41.589024 97.545204 -63.156021 2.555881 84.773192 0.330298 -2.286048 17.442437 -2.705419 -18.418743 2.717690 3.505881 4.958363 -13.772622 nan nan nan -6.878477 -1.240031 -15.089421 3.631139 -0.779843 -3.489688 12.538409 0.951936 7.800349 nan nan nan -5.140169 -2.087796 1.320284 5.330183 -3.074247 11.899801 -0.884068 -0.308345 -0.354018 -0.669400 8.729363 13.852822 -1.587078 0.557240 7.446478 -21.588655 5.801955 -2.573659 -64.614456 -17.759455 22.747844 17.602140 -46.424148 -18.026792 -10.398578 -21.567427 5.160054 24.955412 -5.237617 3.170079 66.672808 0.315435 10.949896 -16.182791 18.912689 -16.523184 10.594193 8.813247 -0.557826 
18.699541 41.337109 97.429535 -62.753539 2.488298 84.762186 0.411778 -2.235329 17.911932 -2.671002 -18.883370 2.851073 3.377539 4.856270 -14.037694 nan nan nan -7.068401 -1.478505 -15.014372 3.855145 -0.675920 -4.053594 12.775869 1.270089 6.999900 nan nan nan -5.088652 -2.091035 1.332948 5.289945 -3.057370 12.037539 -0.928991 -0.321960 -0.399628 -0.661660 8.644178 13.596171 -1.520921 0.489188 7.695508 -21.649694 5.938343 -2.569464 -64.598350 -17.859463 22.862203 17.558869 -46.392851 -17.997930 -10.337211 -21.687273 5.247974 25.077008 -5.274925 3.149799 66.527859 0.416535 10.966742 -16.073182 18.783252 -16.648702 10.645066 8.902657 -0.653936 
17.889753 41.102310 97.316795 -62.369626 2.378618 84.787590 0.422565 -2.318643 18.274526 -2.707625 -19.317165 3.109543 3.232872 4.850854 -14.205422 nan nan nan -7.219316 -1.631511 -15.127212 3.937557 -0.403556 -4.130851 13.024448 1.607400 6.372654 nan nan nan -5.157213 -2.014161 1.280207 5.303150 -3.014729 12.298606 -0.913854 -0.360782 -0.533263 -0.660741 8.511926 13.385038 -1.530186 0.421765 7.880127 -21.719893 5.937439 -2.487629 -64.660870 -17.956229 22.843074 17.587574 -46.265004 -18.240889 -10.400386 -21.735015 5.444710 25.184785 -5.319836 3.121733 66.359656 0.483545 10.841998 -15.934331 18.768683 -16.765682 10.762052 8.895969 -0.389596 
17.064421 40.874352 97.211288 -61.985199 2.321984 84.806444 0.496485 -2.445742 18.614512 -2.751198 -19.681940 3.418130 3.026424 4.848014 -14.367643 nan nan nan -7.226778 -1.634957 -15.404974 3.852193 -0.076126 -3.661926 13.178235 1.786755 5.935966 nan nan nan -5.189087 -2.036707 1.244571 5.311049 -2.944861 12.510519 -0.874839 -0.410333 -0.623074 -0.647088 8.523786 13.253149 -1.658504 0.429985 7.873010 -21.742754 5.994681 -2.546171 -64.822756 -17.876439 22.753763 17.613456 -46.107536 -18.608754 -10.516336 -21.605935 5.887316 25.203995 -5.340871 3.131280 66.252271 0.656951 10.740695 -15.802165 18.705540 -16.862038 10.846766 8.870519 -0.069020 
16.236698 40.660732 97.115082 -61.727471 2.296098 84.848500 0.607899 -2.589174 18.946761 -2.852892 -19.965819 3.724142 2.878466 4.866733 -14.569303 nan nan nan -7.145305 -1.371362 -15.840818 3.691318 0.232609 -2.873281 13.076668 1.839574 5.896131 nan nan nan -5.164357 -2.109563 1.173478 5.317695 -2.799534 12.646467 -0.899309 -0.417491 -0.601908 -0.659676 8.573641 13.168368 -1.649153 0.426910 7.721268 -21.780897 6.098773 -2.682503 -64.797998 -17.681030 22.749312 17.623248 -46.029506 -18.499164 -10.313543 -21.606580 5.983582 25.296014 -5.257718 3.096089 66.116749 0.807143 10.799464 -15.674918 18.475350 -16.889210 10.743641 9.001132 -0.049547 
15.392141 40.444065 97.016960 -61.518128 2.334746 84.885304 0.826261 -2.765719 19.327664 -3.060906 -20.300794 3.969440 2.809933 5.009549 -14.702403 nan nan nan -7.054184 -0.882805 -16.302764 3.601397 0.445513 -1.863649 12.872062 1.742107 6.139422 nan nan nan -5.080126 -2.158734 1.152214 5.373667 -2.618784 12.677822 -0.910986 -0.413078 -0.564056 -0.703904 8.508736 13.104749 -1.628204 0.352298 7.615672 -21.815235 6.047490 -2.684616 -64.671944 -17.446163 22.801861 17.583961 -45.883747 -18.079828 -9.808244 -21.640464 5.323229 25.320217 -5.135187 3.031321 66.012881 0.742377 10.855532 -15.606266 18.471542 -16.737240 10.419459 9.019025 -0.458265 
14.544966 40.205864 96.948204 -61.254165 2.374017 84.899951 0.993604 -2.915203 19.699719 -3.213378 -20.736205 4.309602 2.700333 5.172107 -14.916936 nan nan nan -6.981679 -0.426495 -16.776770 3.599714 0.640134 -0.598202 12.623653 1.601502 6.372383 nan nan nan -4.996035 -2.285523 1.237982 5.468111 -2.515664 12.776528 -0.960973 -0.388175 -0.785808 -0.683935 8.505210 13.164536 -1.651968 0.231506 7.486025 -21.897336 6.127081 -2.623896 -64.637876 -17.209488 22.808929 17.687886 -45.549778 -17.802174 -9.628957 -21.775170 4.842381 25.348419 -5.077184 3.082224 65.954447 0.710849 10.933061 -15.756054 18.501888 -16.510900 10.198637 9.077918 -0.829709 
13.705338 39.966492 96.879974 -60.983610 2.381234 84.984654 1.088238 -2.999850 19.871897 -3.290501 -20.942177 4.886733 2.632732 5.148220 -15.191310 nan nan nan -6.886738 -0.107446 -17.311806 3.611515 0.949057 0.748602 12.437271 1.660428 6.520690 nan nan nan -4.957885 -2.466698 1.215099 5.546455 -2.462696 12.935228 -1.019107 -0.384678 -0.983114 -0.467561 8.657450 13.141470 -1.881755 0.194490 7.623454 -21.921719 6.318288 -2.646175 -64.795718 -16.896562 22.746045 18.003543 -45.129567 -17.924862 -10.000995 -21.719571 5.026464 25.413578 -4.958392 3.172123 65.900619 0.845067 11.171866 -16.013584 18.402029 -16.489866 10.334151 9.010040 -0.939660 
12.848948 39.719707 96.832314 -60.824916 2.410408 85.096380 1.216078 -2.965699 20.017974 -3.324762 -21.115971 5.465521 2.446764 4.989586 -15.375853 nan nan nan -6.708081 0.192152 -17.823081 3.627326 1.401668 2.124329 12.394279 1.991698 6.593850 nan nan nan -4.835378 -2.611284 1.060626 5.591513 -2.312799 13.014588 -1.056214 -0.388935 -0.958613 -0.438014 8.724914 13.005186 -2.075352 0.147587 7.766131 -22.029993 6.385265 -2.710110 -64.937373 -16.507682 22.547844 18.403153 -44.665724 -18.222845 -10.403668 -21.540050 5.322153 25.523775 -4.853436 3.248373 65.743038 1.067246 11.148955 -16.130835 18.282692 -16.553266 10.542422 8.995440 -0.625771 
